<?xml version="1.0" encoding="UTF-8"?>
<svg id="a" data-name="Layer 1" xmlns="http://www.w3.org/2000/svg" viewBox="0 0 296 46.45">
  <defs>
    <style>
      .b {
        fill: #e5f4f7;
      }

      .b, .c {
        stroke-width: 0px;
      }

      .c {
        fill: #00afc7;
      }
    </style>
  </defs>
  <g>
    <path class="b" d="m.2,20.65c0-4.05,3.15-7.1,9.35-7.1,2.6,0,5.15.55,7.05,1.65,1.15.65,1.85,1.4,1.85,2.5,0,1.4-1.05,3.45-2.85,3.45-.5,0-.95-.15-2.15-.65-1.85-.75-3.2-1.1-4.3-1.1s-1.8.35-1.8,1.05c0,2.9,11.6,1.65,11.6,9.55,0,4.25-3.35,7.05-9.6,7.05-3,0-5.35-.65-7.35-1.85-1.25-.75-2-1.55-2-2.7,0-1.25.95-3.5,2.95-3.5.7,0,1.4.3,2.15.7,1.55.8,2.85,1.5,4.6,1.5,1.3,0,2.1-.35,2.1-1.15,0-3-11.6-1.7-11.6-9.4Z"/>
    <path class="b" d="m30.49,33.95c0,2-1.25,3-3.75,3s-3.75-1-3.75-3V5.85c0-2,1.25-3,3.75-3s3.75,1,3.75,3v28.1Z"/>
    <path class="b" d="m55.68,32.85c0,1.05-.6,1.8-1.85,2.55-1.7,1-4.15,1.7-7.3,1.7-7.75,0-12.05-4.3-12.05-11.7s4.2-11.95,11.15-11.95,10.65,4.8,10.65,9.8c0,3.7-1.9,4.2-4.15,4.2h-10.45c.6,2.4,2.15,3.65,4.95,3.65,1.65,0,2.85-.45,4.05-1,.85-.4,1.45-.65,2.05-.65,1.6,0,2.95,1.8,2.95,3.4Zm-14.15-10.05h7.75c0-2.05-1.1-3.8-3.7-3.8-2.3,0-3.6,1.3-4.05,3.8Z"/>
    <path class="b" d="m80.36,32.85c0,1.05-.6,1.8-1.85,2.55-1.7,1-4.15,1.7-7.3,1.7-7.75,0-12.05-4.3-12.05-11.7s4.2-11.95,11.15-11.95,10.65,4.8,10.65,9.8c0,3.7-1.9,4.2-4.15,4.2h-10.45c.6,2.4,2.15,3.65,4.95,3.65,1.65,0,2.85-.45,4.05-1,.85-.4,1.45-.65,2.05-.65,1.6,0,2.95,1.8,2.95,3.4Zm-14.15-10.05h7.75c0-2.05-1.1-3.8-3.7-3.8-2.3,0-3.6,1.3-4.05,3.8Z"/>
    <path class="b" d="m92.57,43.3c0,2-1.25,3-3.75,3s-3.75-1-3.75-3v-26.65c0-2.05,1.25-3,3.7-3,2.3,0,3.25.85,3.25,2.3v.05c1.25-1.55,3.15-2.35,5.6-2.35,5.45,0,9.85,4.05,9.85,11.35s-4.5,11.95-11.35,11.95c-1.45,0-2.75-.2-3.55-.65v7Zm2.5-12.4c2.95,0,4.75-1.9,4.75-5.5s-1.9-5.75-4.65-5.75c-1,0-1.9.25-2.6.75v9.9c.7.4,1.55.6,2.5.6Z"/>
  </g>
  <path class="c" d="m168.52,12.03c-3.32,0-6.01-2.7-6.01-6.01s2.7-6.01,6.01-6.01,6.01,2.7,6.01,6.01-2.7,6.01-6.01,6.01Zm0-10.19c-2.3,0-4.18,1.87-4.18,4.18s1.87,4.17,4.18,4.17,4.18-1.87,4.18-4.17-1.87-4.18-4.18-4.18Z"/>
  <g>
    <path class="c" d="m122.05,15.9c-2.35,0-3.75.65-5.15,1.55-.7.45-1.05.85-1.4.85-.55,0-.9-.55-.9-.95s.45-.85,1.35-1.45c1.65-1.1,3.65-1.75,6.2-1.75,3.4,0,5.3,1.1,6.4,2.75.8,1.2,1.15,2.95,1.15,5.35v13.3c0,.65-.25.95-.95.95-.65,0-.95-.25-.95-.8v-1.8c-1.9,1.85-4.3,2.75-7.2,2.75-4.65,0-7.1-2.45-7.1-5.9,0-4.55,4.35-6.7,14.25-7.45v-.9c0-4.3-1.5-6.5-5.7-6.5Zm-6.4,14.75c0,2.4,1.7,4.3,5.4,4.3,2.5,0,4.75-.9,6.7-2.75v-7.4c-8.55.8-12.1,2.35-12.1,5.85Z"/>
    <path class="c" d="m138.76,15.3v2.55c1.25-2,3.85-3.7,7.55-3.7,2.8,0,5,.9,6.3,2.75,1,1.4,1.5,3.35,1.5,6v12.65c0,.65-.3.95-.95.95-.7,0-1.05-.3-1.05-.95v-12.4c0-1.75-.25-3.65-1.25-5.05-1.05-1.45-2.7-2.15-4.95-2.15-3.5,0-5.95,1.85-7.1,3.85v15.75c0,.65-.3.95-.95.95-.7,0-1.05-.3-1.05-.95V15.3c0-.6.3-.95,1-.95s.95.35.95.95Z"/>
    <path class="c" d="m177.54,15.1c0,.4-.15,1-.3,1.6-2.25,9.25-8.3,22.4-14.55,28.8-.5.6-.9.95-1.35.95-.5,0-1.05-.45-1.05-.95,0-.45.45-.85.85-1.2,2.3-2.25,4.65-5.6,5.95-7.95l-8.8-20.5c-.1-.3-.25-.6-.25-.9,0-.35.25-.6.9-.6.7,0,1,.25,1.35,1.1l8.05,18.95c2.5-4.6,5.5-11.85,7.1-18.45.2-1.05.35-1.6,1.25-1.6.6,0,.85.3.85.75Z"/>
    <path class="c" d="m190.44,35.4c-.3.75-.65,1.15-1.4,1.15-.8,0-1.15-.35-1.4-1.15l-5.95-19.5c-.15-.35-.2-.65-.2-.9,0-.35.2-.65.9-.65.75,0,1,.3,1.2,1.1l5.6,18.5,6.4-17.6c.25-.7.6-1.1,1.35-1.1.7,0,1.05.4,1.3,1.1l6.25,17.6,5.75-18.5c.2-.75.45-1.1,1.1-1.1s.9.3.9.65c0,.3-.1.55-.2.9l-6.15,19.55c-.2.75-.6,1.1-1.35,1.1-.8,0-1.1-.35-1.4-1.15l-6.25-17.55-6.45,17.55Z"/>
    <path class="c" d="m234.6,35.55c0,.65-.3.95-.95.95-.7,0-1.05-.3-1.05-.95v-12.4c0-1.75-.25-3.65-1.25-5.05-1.05-1.45-2.7-2.15-4.95-2.15-3.5,0-5.95,1.85-7.1,3.85v15.75c0,.65-.3.95-.95.95-.7,0-1.05-.3-1.05-.95V2.8c0-.65.3-.95.95-.95.7,0,1.05.3,1.05.95v15c1.25-2,3.85-3.65,7.5-3.65,2.8,0,5,.9,6.3,2.75,1,1.4,1.5,3.35,1.5,6v12.65Z"/>
    <path class="c" d="m257.22,25.6h-14.85c.1,5.5,2.8,9.3,8.25,9.3,1.85,0,3.75-.4,5.35-1.65.85-.65,1.15-1.1,1.6-1.1.5,0,.85.45.85.9,0,.4-.5.95-1.2,1.5-1.85,1.4-4.05,2.15-6.7,2.15-6.4,0-10.2-4.35-10.2-11.25s3.7-11.35,9.5-11.35,9,4.1,9,9.65c0,1.7-.4,1.85-1.6,1.85Zm-.45-1.6c0-4.85-2.65-8.25-7-8.25s-6.95,3.3-7.35,8.25h14.35Z"/>
    <path class="c" d="m266.61,35.55c0,.65-.3.95-.95.95-.7,0-1.05-.3-1.05-.95V15.3c0-.6.3-.95,1-.95s.95.35.95.95v3.8c1.55-3.2,4.1-4.85,7.7-4.85.95,0,1.2.25,1.2.95,0,.8-.45.85-1.5.9-3.55.1-5.85,1.7-7.35,5.3v14.15Z"/>
    <path class="c" d="m294.4,25.6h-14.85c.1,5.5,2.8,9.3,8.25,9.3,1.85,0,3.75-.4,5.35-1.65.85-.65,1.15-1.1,1.6-1.1.5,0,.85.45.85.9,0,.4-.5.95-1.2,1.5-1.85,1.4-4.05,2.15-6.7,2.15-6.4,0-10.2-4.35-10.2-11.25s3.7-11.35,9.5-11.35,9,4.1,9,9.65c0,1.7-.4,1.85-1.6,1.85Zm-.45-1.6c0-4.85-2.65-8.25-7-8.25s-6.95,3.3-7.35,8.25h14.35Z"/>
  </g>
</svg>